<svg id="visual" viewBox="0 0 1920 1080" width="1920" height="1080" xmlns="http://www.w3.org/2000/svg" xmlns:xlink="http://www.w3.org/1999/xlink" version="1.1"><rect x="0" y="0" width="1920" height="1080" fill="#002233"></rect><path d="M0 230L45.7 232C91.3 234 182.7 238 274.2 228.5C365.7 219 457.3 196 548.8 222.7C640.3 249.3 731.7 325.7 823 338.5C914.3 351.3 1005.7 300.7 1097 273C1188.3 245.3 1279.7 240.7 1371.2 258C1462.7 275.3 1554.3 314.7 1645.8 324.2C1737.3 333.7 1828.7 313.3 1874.3 303.2L1920 293L1920 0L1874.3 0C1828.7 0 1737.3 0 1645.8 0C1554.3 0 1462.7 0 1371.2 0C1279.7 0 1188.3 0 1097 0C1005.7 0 914.3 0 823 0C731.7 0 640.3 0 548.8 0C457.3 0 365.7 0 274.2 0C182.7 0 91.3 0 45.7 0L0 0Z" fill="#0066FF" stroke-linecap="round" stroke-linejoin="miter"></path></svg>